<svg xmlns="http://www.w3.org/2000/svg" width="256" height="256" viewBox="0 0 256 256"><defs>
<linearGradient id="gm" x1="0" y1="0" x2="0" y2="1"><stop offset="0" stop-color="#B4BCC7"/><stop offset=".45" stop-color="#6A727E"/><stop offset="1" stop-color="#363B44"/></linearGradient>
<radialGradient id="vin" cx=".5" cy=".5" r=".5"><stop offset=".3" stop-color="#2A2F37"/><stop offset=".9" stop-color="#15181D"/><stop offset="1" stop-color="#0E1013"/></radialGradient>
<linearGradient id="cu" x1="0" y1="0" x2="1" y2="1"><stop offset="0" stop-color="#F0A06A"/><stop offset=".5" stop-color="#C95C25"/><stop offset="1" stop-color="#8A3A14"/></linearGradient>
<linearGradient id="cus" x1="0" y1="0" x2="1" y2="1"><stop offset="0" stop-color="#FFB27A"/><stop offset=".5" stop-color="#E06A2C"/><stop offset="1" stop-color="#A8461A"/></linearGradient>
<radialGradient id="lab" cx=".38" cy=".3" r=".8"><stop offset="0" stop-color="#5BE7F4"/><stop offset=".55" stop-color="#00B4C8"/><stop offset="1" stop-color="#077D8F"/></radialGradient>
<linearGradient id="sheen" x1="0" y1="0" x2="1" y2="1"><stop offset="0" stop-color="#fff" stop-opacity=".30"/><stop offset="1" stop-color="#fff" stop-opacity=".04"/></linearGradient>
<radialGradient id="sh" cx=".5" cy=".5" r=".5"><stop offset="0" stop-color="#000" stop-opacity=".45"/><stop offset="1" stop-color="#000" stop-opacity="0"/></radialGradient>
<radialGradient id="dsh" cx=".5" cy=".5" r=".5"><stop offset=".82" stop-color="#000" stop-opacity=".5"/><stop offset="1" stop-color="#000" stop-opacity="0"/></radialGradient>

<linearGradient id="sb" x1="0" y1="0" x2="1" y2="1"><stop offset="0" stop-color="#5A9BF0"/><stop offset="1" stop-color="#2556AE"/></linearGradient>
<linearGradient id="st" x1="0" y1="0" x2="1" y2="1"><stop offset="0" stop-color="#3FD0E0"/><stop offset="1" stop-color="#067E90"/></linearGradient>
<linearGradient id="gl" x1="0" y1="0" x2="0" y2="1"><stop offset="0" stop-color="#fff" stop-opacity=".35"/><stop offset=".5" stop-color="#fff" stop-opacity="0"/></linearGradient>
</defs><ellipse cx="140" cy="240" rx="104" ry="11" fill="url(#sh)"/><g transform="rotate(-9 84 84)"><rect x="17" y="20" width="140" height="140" rx="12" fill="#000" opacity=".28"/><rect x="14" y="14" width="140" height="140" rx="12" fill="url(#st)"/><g opacity=".9"><path d="M63,33.48 L63.44,33.15 L63.88,32.43 L64.31,31.6 L64.75,30.91 L65.19,30.52 L65.62,30.41 L66.06,30.44 L66.5,30.36 L66.94,29.95 L67.38,29.13 L67.81,27.98 L68.25,26.82 L68.69,26.03 L69.12,26.02 L69.56,27.04 L70,29.11 L70.44,31.93 L70.88,31.92 L71.31,29.11 L71.75,27.06 L72.19,26.03 L72.62,25.94 L73.06,26.42 L73.5,26.93 L73.94,26.94 L74.38,26.11 L74.81,24.44 L75.25,22.28 L75.69,20.24 L76.12,19.2 L76.56,19.23 L77,21.11 L77.44,24.49 L77.88,28.85 L78.31,33.38 L78.75,29.67 L79.19,26.99 L79.62,25.74 L80.06,25.7 L80.5,26.28 L80.94,26.75 L81.38,26.46 L81.81,25.07 L82.25,22.67 L82.69,19.76 L83.12,19.2 L83.56,19.2 L84,19.2 L84.44,19.2 L84.88,21.53 L85.31,26.18 L85.75,30.9 L86.19,32.11 L86.62,29.48 L87.06,28.31 L87.5,28.28 L87.94,28.74 L88.38,28.97 L88.81,28.36 L89.25,26.67 L89.69,24.06 L90.12,21.07 L90.56,19.2 L91,19.2 L91.44,19.2 L91.88,19.2 L92.31,21.92 L92.75,25.74 L93.19,29.51 L93.62,32.56 L94.06,32.46 L94.5,31.65 L94.94,31.64 L95.38,31.92 L95.81,31.92 L96.25,31.27 L96.69,29.86 L97.12,27.89 L97.56,25.81 L98,24.12 L98.44,23.27 L98.88,23.47 L99.31,24.68 L99.75,26.58 L100.19,28.74 L100.62,30.71 L101.06,32.18 L101.5,33.03 L101.94,33.35 L102.38,33.37 L102.81,33.32 L103.25,33.39 L103.69,33.34 L104.12,33.08 L104.56,33.01 L105,33.48 L105,38.52 L104.56,38.99 L104.12,38.92 L103.69,38.66 L103.25,38.61 L102.81,38.68 L102.38,38.63 L101.94,38.65 L101.5,38.97 L101.06,39.82 L100.62,41.29 L100.19,43.26 L99.75,45.42 L99.31,47.32 L98.88,48.53 L98.44,48.73 L98,47.88 L97.56,46.19 L97.12,44.11 L96.69,42.14 L96.25,40.73 L95.81,40.08 L95.38,40.08 L94.94,40.36 L94.5,40.35 L94.06,39.54 L93.62,39.44 L93.19,42.49 L92.75,46.26 L92.31,50.08 L91.88,52.8 L91.44,52.8 L91,52.8 L90.56,52.8 L90.12,50.93 L89.69,47.94 L89.25,45.33 L88.81,43.64 L88.38,43.03 L87.94,43.26 L87.5,43.72 L87.06,43.69 L86.62,42.52 L86.19,39.89 L85.75,41.1 L85.31,45.82 L84.88,50.47 L84.44,52.8 L84,52.8 L83.56,52.8 L83.12,52.8 L82.69,52.24 L82.25,49.33 L81.81,46.93 L81.38,45.54 L80.94,45.25 L80.5,45.72 L80.06,46.3 L79.62,46.26 L79.19,45.01 L78.75,42.33 L78.31,38.62 L77.88,43.15 L77.44,47.51 L77,50.89 L76.56,52.77 L76.12,52.8 L75.69,51.76 L75.25,49.72 L74.81,47.56 L74.38,45.89 L73.94,45.06 L73.5,45.07 L73.06,45.58 L72.62,46.06 L72.19,45.97 L71.75,44.94 L71.31,42.89 L70.88,40.08 L70.44,40.07 L70,42.89 L69.56,44.96 L69.12,45.98 L68.69,45.97 L68.25,45.18 L67.81,44.02 L67.38,42.87 L66.94,42.05 L66.5,41.64 L66.06,41.56 L65.62,41.59 L65.19,41.48 L64.75,41.09 L64.31,40.4 L63.88,39.57 L63.44,38.85 L63,38.52Z" fill="#fff"/><rect x="62.16" y="35.37" width="43.68" height="1.26" fill="#fff"/></g><rect x="14" y="14" width="140" height="140" rx="12" fill="url(#gl)"/><rect x="15" y="15" width="138" height="138" rx="11" fill="none" stroke="#fff" stroke-opacity=".25" stroke-width="2"/></g><g transform="rotate(-2 102 104)"><rect x="35" y="40" width="140" height="140" rx="12" fill="#000" opacity=".28"/><rect x="32" y="34" width="140" height="140" rx="12" fill="url(#sb)"/><g opacity=".92"><rect x="43.62" y="79.94" width="5.58" height="16.12" rx="2.79" fill="#fff"/><rect x="52.3" y="73.12" width="5.58" height="29.76" rx="2.79" fill="#fff"/><rect x="60.98" y="66.3" width="5.58" height="43.4" rx="2.79" fill="#fff"/><rect x="69.66" y="71.26" width="5.58" height="33.48" rx="2.79" fill="#fff"/><rect x="78.34" y="63.2" width="5.58" height="49.6" rx="2.79" fill="#fff"/><rect x="87.02" y="74.36" width="5.58" height="27.28" rx="2.79" fill="#fff"/><rect x="95.7" y="78.7" width="5.58" height="18.6" rx="2.79" fill="#fff"/></g><rect x="32" y="34" width="140" height="140" rx="12" fill="url(#gl)"/><rect x="33" y="35" width="138" height="138" rx="11" fill="none" stroke="#fff" stroke-opacity=".25" stroke-width="2"/></g><circle cx="155.6" cy="152.3" r="99" fill="url(#dsh)"/><path d="M156.54,65.13 L159.46,56.31 L164.68,56.9 L165.57,66.14 L174.42,68.17 L179.23,60.22 L184.19,61.95 L183,71.17 L191.18,75.11 L197.64,68.43 L202.09,71.22 L198.87,79.94 L205.97,85.6 L213.76,80.53 L217.47,84.24 L212.4,92.03 L218.06,99.13 L226.78,95.91 L229.57,100.36 L222.89,106.82 L226.83,115 L236.05,113.81 L237.78,118.77 L229.83,123.58 L231.86,132.43 L241.1,133.32 L241.69,138.54 L232.87,141.46 L232.87,150.54 L241.69,153.46 L241.1,158.68 L231.86,159.57 L229.83,168.42 L237.78,173.23 L236.05,178.19 L226.83,177 L222.89,185.18 L229.57,191.64 L226.78,196.09 L218.06,192.87 L212.4,199.97 L217.47,207.76 L213.76,211.47 L205.97,206.4 L198.87,212.06 L202.09,220.78 L197.64,223.57 L191.18,216.89 L183,220.83 L184.19,230.05 L179.23,231.78 L174.42,223.83 L165.57,225.86 L164.68,235.1 L159.46,235.69 L156.54,226.87 L147.46,226.87 L144.54,235.69 L139.32,235.1 L138.43,225.86 L129.58,223.83 L124.77,231.78 L119.81,230.05 L121,220.83 L112.82,216.89 L106.36,223.57 L101.91,220.78 L105.13,212.06 L98.03,206.4 L90.24,211.47 L86.53,207.76 L91.6,199.97 L85.94,192.87 L77.22,196.09 L74.43,191.64 L81.11,185.18 L77.17,177 L67.95,178.19 L66.22,173.23 L74.17,168.42 L72.14,159.57 L62.9,158.68 L62.31,153.46 L71.13,150.54 L71.13,141.46 L62.31,138.54 L62.9,133.32 L72.14,132.43 L74.17,123.58 L66.22,118.77 L67.95,113.81 L77.17,115 L81.11,106.82 L74.43,100.36 L77.22,95.91 L85.94,99.13 L91.6,92.03 L86.53,84.24 L90.24,80.53 L98.03,85.6 L105.13,79.94 L101.91,71.22 L106.36,68.43 L112.82,75.11 L121,71.17 L119.81,61.95 L124.77,60.22 L129.58,68.17 L138.43,66.14 L139.32,56.9 L144.54,56.31 L147.46,65.13Z" fill="url(#gm)"/><circle cx="152" cy="146" r="81.5" fill="url(#gm)"/><circle cx="152" cy="146" r="81.45" fill="#1A1C20"/><circle cx="152" cy="146" r="79.65" fill="url(#cu)"/><circle cx="152" cy="146" r="75.6" fill="url(#vin)"/><circle cx="152" cy="146" r="37.9" fill="none" stroke="#fff" stroke-opacity="0.05" stroke-width="1.08"/><circle cx="152" cy="146" r="42.5" fill="none" stroke="#fff" stroke-opacity="0.05" stroke-width="1.08"/><circle cx="152" cy="146" r="47.09" fill="none" stroke="#fff" stroke-opacity="0.09" stroke-width="1.08"/><circle cx="152" cy="146" r="51.69" fill="none" stroke="#fff" stroke-opacity="0.05" stroke-width="1.08"/><circle cx="152" cy="146" r="56.29" fill="none" stroke="#fff" stroke-opacity="0.05" stroke-width="1.08"/><circle cx="152" cy="146" r="60.89" fill="none" stroke="#fff" stroke-opacity="0.09" stroke-width="1.08"/><circle cx="152" cy="146" r="65.48" fill="none" stroke="#fff" stroke-opacity="0.05" stroke-width="1.08"/><circle cx="152" cy="146" r="70.08" fill="none" stroke="#fff" stroke-opacity="0.05" stroke-width="1.08"/><clipPath id="ac"><circle cx="152" cy="146" r="75.6"/></clipPath><g clip-path="url(#ac)" fill="url(#sheen)"><path d="M152,146 L86.53,108.2 A75.6,75.6 0 0 1 132.43,72.98Z"/><path d="M152,146 L217.47,183.8 A75.6,75.6 0 0 1 171.57,219.02Z" opacity=".55"/></g><circle cx="152" cy="146" r="35.1" fill="#0A5360"/><circle cx="152" cy="146" r="33.3" fill="url(#lab)"/><path d="M142.71,129.9 L170.58,146 L142.71,162.1Z" transform="translate(1.08,1.8)" fill="#064652" opacity=".45" stroke="#064652" stroke-width="5.33" stroke-linejoin="round"/><path d="M142.71,129.9 L170.58,146 L142.71,162.1Z" fill="#fff" stroke="#fff" stroke-width="5.33" stroke-linejoin="round"/><path d="M89,90.2 A83.7,83.7 0 0 1 215,90.2" fill="none" stroke="#fff" stroke-opacity=".22" stroke-width="2.25" stroke-linecap="round"/></svg>
