<svg xmlns="http://www.w3.org/2000/svg" width="256" height="256" viewBox="0 0 256 256"><defs>
<linearGradient id="gm" x1="0" y1="0" x2="0" y2="1"><stop offset="0" stop-color="#B4BCC7"/><stop offset=".45" stop-color="#6A727E"/><stop offset="1" stop-color="#363B44"/></linearGradient>
<radialGradient id="vin" cx=".5" cy=".5" r=".5"><stop offset=".3" stop-color="#2A2F37"/><stop offset=".9" stop-color="#15181D"/><stop offset="1" stop-color="#0E1013"/></radialGradient>
<linearGradient id="cu" x1="0" y1="0" x2="1" y2="1"><stop offset="0" stop-color="#E08A55"/><stop offset=".5" stop-color="#B7501F"/><stop offset="1" stop-color="#7A3312"/></linearGradient>
<radialGradient id="lab" cx=".38" cy=".3" r=".8"><stop offset="0" stop-color="#5BE7F4"/><stop offset=".55" stop-color="#00B4C8"/><stop offset="1" stop-color="#077D8F"/></radialGradient>
<linearGradient id="sheen" x1="0" y1="0" x2="1" y2="1"><stop offset="0" stop-color="#fff" stop-opacity=".30"/><stop offset="1" stop-color="#fff" stop-opacity=".04"/></linearGradient>
<radialGradient id="sh" cx=".5" cy=".5" r=".5"><stop offset="0" stop-color="#000" stop-opacity=".45"/><stop offset="1" stop-color="#000" stop-opacity="0"/></radialGradient>
<radialGradient id="dsh" cx=".5" cy=".5" r=".5"><stop offset=".82" stop-color="#000" stop-opacity=".5"/><stop offset="1" stop-color="#000" stop-opacity="0"/></radialGradient>

<linearGradient id="bf" x1="0" y1="0" x2="0" y2="1"><stop offset="0" stop-color="#727C8B"/><stop offset="1" stop-color="#3E4550"/></linearGradient>
<linearGradient id="bfl" x1="0" y1="0" x2="0" y2="1"><stop offset="0" stop-color="#99A2AF"/><stop offset="1" stop-color="#626B78"/></linearGradient>
<linearGradient id="bin" x1="0" y1="0" x2="0" y2="1"><stop offset="0" stop-color="#0D0F12"/><stop offset="1" stop-color="#1D2127"/></linearGradient>
<linearGradient id="bdb" x1="0" y1="0" x2="0" y2="1"><stop offset="0" stop-color="#5A9BF0"/><stop offset="1" stop-color="#1F55B5"/></linearGradient>
<linearGradient id="bdr" x1="0" y1="0" x2="0" y2="1"><stop offset="0" stop-color="#F0646A"/><stop offset="1" stop-color="#B3262C"/></linearGradient>
</defs><ellipse cx="120" cy="244" rx="92" ry="10" fill="url(#sh)"/><circle cx="116.16" cy="119.28" r="114.4" fill="url(#dsh)"/><path d="M121.44,18.88 L128.04,9.24 L142.13,12.46 L143.9,24 L160.91,32.19 L171.03,26.38 L182.34,35.39 L178.92,46.56 L190.69,61.32 L202.34,60.47 L208.61,73.5 L200.69,82.08 L204.89,100.48 L215.75,104.77 L215.75,119.23 L204.89,123.52 L200.69,141.92 L208.61,150.5 L202.34,163.53 L190.69,162.68 L178.92,177.44 L182.34,188.61 L171.03,197.62 L160.91,191.81 L143.9,200 L142.13,211.54 L128.04,214.76 L121.44,205.12 L102.56,205.12 L95.96,214.76 L81.87,211.54 L80.1,200 L63.09,191.81 L52.97,197.62 L41.66,188.61 L45.08,177.44 L33.31,162.68 L21.66,163.53 L15.39,150.5 L23.31,141.92 L19.11,123.52 L8.25,119.23 L8.25,104.77 L19.11,100.48 L23.31,82.08 L15.39,73.5 L21.66,60.47 L33.31,61.32 L45.08,46.56 L41.66,35.39 L52.97,26.38 L63.09,32.19 L80.1,24 L81.87,12.46 L95.96,9.24 L102.56,18.88Z" fill="url(#gm)"/><circle cx="112" cy="112" r="94.1" fill="url(#gm)"/><circle cx="112" cy="112" r="91" fill="url(#cu)"/><circle cx="112" cy="112" r="87.36" fill="url(#vin)"/><clipPath id="bc"><circle cx="112" cy="112" r="87.36"/></clipPath><g clip-path="url(#bc)" fill="url(#sheen)"><path d="M112,112 L36.34,68.32 A87.36,87.36 0 0 1 89.39,27.62Z"/><path d="M112,112 L187.66,155.68 A87.36,87.36 0 0 1 134.61,196.38Z" opacity=".55"/></g><circle cx="112" cy="112" r="56.16" fill="#0A5360"/><circle cx="112" cy="112" r="54.08" fill="url(#lab)"/><path d="M96.91,85.85 L142.18,112 L96.91,138.15Z" transform="translate(1.25,2.08)" fill="#064652" opacity=".45" stroke="#064652" stroke-width="8.65" stroke-linejoin="round"/><path d="M96.91,85.85 L142.18,112 L96.91,138.15Z" fill="#fff" stroke="#fff" stroke-width="8.65" stroke-linejoin="round"/><path d="M39.2,47.52 A96.72,96.72 0 0 1 184.8,47.52" fill="none" stroke="#fff" stroke-opacity=".22" stroke-width="2.6" stroke-linecap="round"/><circle cx="190" cy="190" r="62" fill="#fff"/><circle cx="190" cy="190" r="54" fill="url(#bdr)"/><path d="M170,170 L210,210 M210,170 L170,210" fill="none" stroke="#fff" stroke-width="14" stroke-linecap="round"/></svg>
