<svg xmlns="http://www.w3.org/2000/svg" width="256" height="256" viewBox="0 0 256 256"><defs>
<linearGradient id="gm" x1="0" y1="0" x2="0" y2="1"><stop offset="0" stop-color="#B4BCC7"/><stop offset=".45" stop-color="#6A727E"/><stop offset="1" stop-color="#363B44"/></linearGradient>
<radialGradient id="vin" cx=".5" cy=".5" r=".5"><stop offset=".3" stop-color="#2A2F37"/><stop offset=".9" stop-color="#15181D"/><stop offset="1" stop-color="#0E1013"/></radialGradient>
<linearGradient id="cu" x1="0" y1="0" x2="1" y2="1"><stop offset="0" stop-color="#E08A55"/><stop offset=".5" stop-color="#B7501F"/><stop offset="1" stop-color="#7A3312"/></linearGradient>
<radialGradient id="lab" cx=".38" cy=".3" r=".8"><stop offset="0" stop-color="#5BE7F4"/><stop offset=".55" stop-color="#00B4C8"/><stop offset="1" stop-color="#077D8F"/></radialGradient>
<linearGradient id="sheen" x1="0" y1="0" x2="1" y2="1"><stop offset="0" stop-color="#fff" stop-opacity=".30"/><stop offset="1" stop-color="#fff" stop-opacity=".04"/></linearGradient>
<radialGradient id="sh" cx=".5" cy=".5" r=".5"><stop offset="0" stop-color="#000" stop-opacity=".45"/><stop offset="1" stop-color="#000" stop-opacity="0"/></radialGradient>
<radialGradient id="dsh" cx=".5" cy=".5" r=".5"><stop offset=".82" stop-color="#000" stop-opacity=".5"/><stop offset="1" stop-color="#000" stop-opacity="0"/></radialGradient>

<linearGradient id="sb" x1="0" y1="0" x2="1" y2="1"><stop offset="0" stop-color="#5A9BF0"/><stop offset="1" stop-color="#2556AE"/></linearGradient>
<linearGradient id="st" x1="0" y1="0" x2="1" y2="1"><stop offset="0" stop-color="#3FD0E0"/><stop offset="1" stop-color="#067E90"/></linearGradient>
<linearGradient id="gl" x1="0" y1="0" x2="0" y2="1"><stop offset="0" stop-color="#fff" stop-opacity=".35"/><stop offset=".5" stop-color="#fff" stop-opacity="0"/></linearGradient>
</defs><ellipse cx="140" cy="240" rx="104" ry="11" fill="url(#sh)"/><g transform="rotate(-9 84 84)"><rect x="17" y="20" width="140" height="140" rx="12" fill="#000" opacity=".28"/><rect x="14" y="14" width="140" height="140" rx="12" fill="url(#st)"/><circle cx="84" cy="60" r="26" fill="#fff" opacity=".18"/><rect x="14" y="14" width="140" height="140" rx="12" fill="url(#gl)"/><rect x="15" y="15" width="138" height="138" rx="11" fill="none" stroke="#fff" stroke-opacity=".25" stroke-width="2"/></g><g transform="rotate(-2 102 104)"><rect x="35" y="40" width="140" height="140" rx="12" fill="#000" opacity=".28"/><rect x="32" y="34" width="140" height="140" rx="12" fill="url(#sb)"/><rect x="48" y="52" width="60" height="10" rx="5" fill="#fff" opacity=".35"/><rect x="48" y="70" width="38" height="8" rx="4" fill="#fff" opacity=".22"/><rect x="32" y="34" width="140" height="140" rx="12" fill="url(#gl)"/><rect x="33" y="35" width="138" height="138" rx="11" fill="none" stroke="#fff" stroke-opacity=".25" stroke-width="2"/></g><circle cx="155.6" cy="152.3" r="99" fill="url(#dsh)"/><path d="M156.54,65.13 L159.46,56.31 L164.68,56.9 L165.57,66.14 L174.42,68.17 L179.23,60.22 L184.19,61.95 L183,71.17 L191.18,75.11 L197.64,68.43 L202.09,71.22 L198.87,79.94 L205.97,85.6 L213.76,80.53 L217.47,84.24 L212.4,92.03 L218.06,99.13 L226.78,95.91 L229.57,100.36 L222.89,106.82 L226.83,115 L236.05,113.81 L237.78,118.77 L229.83,123.58 L231.86,132.43 L241.1,133.32 L241.69,138.54 L232.87,141.46 L232.87,150.54 L241.69,153.46 L241.1,158.68 L231.86,159.57 L229.83,168.42 L237.78,173.23 L236.05,178.19 L226.83,177 L222.89,185.18 L229.57,191.64 L226.78,196.09 L218.06,192.87 L212.4,199.97 L217.47,207.76 L213.76,211.47 L205.97,206.4 L198.87,212.06 L202.09,220.78 L197.64,223.57 L191.18,216.89 L183,220.83 L184.19,230.05 L179.23,231.78 L174.42,223.83 L165.57,225.86 L164.68,235.1 L159.46,235.69 L156.54,226.87 L147.46,226.87 L144.54,235.69 L139.32,235.1 L138.43,225.86 L129.58,223.83 L124.77,231.78 L119.81,230.05 L121,220.83 L112.82,216.89 L106.36,223.57 L101.91,220.78 L105.13,212.06 L98.03,206.4 L90.24,211.47 L86.53,207.76 L91.6,199.97 L85.94,192.87 L77.22,196.09 L74.43,191.64 L81.11,185.18 L77.17,177 L67.95,178.19 L66.22,173.23 L74.17,168.42 L72.14,159.57 L62.9,158.68 L62.31,153.46 L71.13,150.54 L71.13,141.46 L62.31,138.54 L62.9,133.32 L72.14,132.43 L74.17,123.58 L66.22,118.77 L67.95,113.81 L77.17,115 L81.11,106.82 L74.43,100.36 L77.22,95.91 L85.94,99.13 L91.6,92.03 L86.53,84.24 L90.24,80.53 L98.03,85.6 L105.13,79.94 L101.91,71.22 L106.36,68.43 L112.82,75.11 L121,71.17 L119.81,61.95 L124.77,60.22 L129.58,68.17 L138.43,66.14 L139.32,56.9 L144.54,56.31 L147.46,65.13Z" fill="url(#gm)"/><circle cx="152" cy="146" r="81.5" fill="url(#gm)"/><circle cx="152" cy="146" r="78.75" fill="url(#cu)"/><circle cx="152" cy="146" r="75.6" fill="url(#vin)"/><circle cx="152" cy="146" r="37.9" fill="none" stroke="#fff" stroke-opacity="0.05" stroke-width="1.08"/><circle cx="152" cy="146" r="42.5" fill="none" stroke="#fff" stroke-opacity="0.05" stroke-width="1.08"/><circle cx="152" cy="146" r="47.09" fill="none" stroke="#fff" stroke-opacity="0.09" stroke-width="1.08"/><circle cx="152" cy="146" r="51.69" fill="none" stroke="#fff" stroke-opacity="0.05" stroke-width="1.08"/><circle cx="152" cy="146" r="56.29" fill="none" stroke="#fff" stroke-opacity="0.05" stroke-width="1.08"/><circle cx="152" cy="146" r="60.89" fill="none" stroke="#fff" stroke-opacity="0.09" stroke-width="1.08"/><circle cx="152" cy="146" r="65.48" fill="none" stroke="#fff" stroke-opacity="0.05" stroke-width="1.08"/><circle cx="152" cy="146" r="70.08" fill="none" stroke="#fff" stroke-opacity="0.05" stroke-width="1.08"/><clipPath id="ac"><circle cx="152" cy="146" r="75.6"/></clipPath><g clip-path="url(#ac)" fill="url(#sheen)"><path d="M152,146 L86.53,108.2 A75.6,75.6 0 0 1 132.43,72.98Z"/><path d="M152,146 L217.47,183.8 A75.6,75.6 0 0 1 171.57,219.02Z" opacity=".55"/></g><circle cx="152" cy="146" r="35.1" fill="#0A5360"/><circle cx="152" cy="146" r="33.3" fill="url(#lab)"/><path d="M142.71,129.9 L170.58,146 L142.71,162.1Z" transform="translate(1.08,1.8)" fill="#064652" opacity=".45" stroke="#064652" stroke-width="5.33" stroke-linejoin="round"/><path d="M142.71,129.9 L170.58,146 L142.71,162.1Z" fill="#fff" stroke="#fff" stroke-width="5.33" stroke-linejoin="round"/><path d="M89,90.2 A83.7,83.7 0 0 1 215,90.2" fill="none" stroke="#fff" stroke-opacity=".22" stroke-width="2.25" stroke-linecap="round"/></svg>
