<svg xmlns="http://www.w3.org/2000/svg" width="256" height="256" viewBox="0 0 256 256"><defs>
<linearGradient id="gm" x1="0" y1="0" x2="0" y2="1"><stop offset="0" stop-color="#B4BCC7"/><stop offset=".45" stop-color="#6A727E"/><stop offset="1" stop-color="#363B44"/></linearGradient>
<radialGradient id="vin" cx=".5" cy=".5" r=".5"><stop offset=".3" stop-color="#2A2F37"/><stop offset=".9" stop-color="#15181D"/><stop offset="1" stop-color="#0E1013"/></radialGradient>
<linearGradient id="cu" x1="0" y1="0" x2="1" y2="1"><stop offset="0" stop-color="#F0A06A"/><stop offset=".5" stop-color="#C95C25"/><stop offset="1" stop-color="#8A3A14"/></linearGradient>
<linearGradient id="cus" x1="0" y1="0" x2="1" y2="1"><stop offset="0" stop-color="#FFB27A"/><stop offset=".5" stop-color="#E06A2C"/><stop offset="1" stop-color="#A8461A"/></linearGradient>
<radialGradient id="lab" cx=".38" cy=".3" r=".8"><stop offset="0" stop-color="#5BE7F4"/><stop offset=".55" stop-color="#00B4C8"/><stop offset="1" stop-color="#077D8F"/></radialGradient>
<linearGradient id="sheen" x1="0" y1="0" x2="1" y2="1"><stop offset="0" stop-color="#fff" stop-opacity=".30"/><stop offset="1" stop-color="#fff" stop-opacity=".04"/></linearGradient>
<radialGradient id="sh" cx=".5" cy=".5" r=".5"><stop offset="0" stop-color="#000" stop-opacity=".45"/><stop offset="1" stop-color="#000" stop-opacity="0"/></radialGradient>
<radialGradient id="dsh" cx=".5" cy=".5" r=".5"><stop offset=".82" stop-color="#000" stop-opacity=".5"/><stop offset="1" stop-color="#000" stop-opacity="0"/></radialGradient>

<linearGradient id="bf" x1="0" y1="0" x2="0" y2="1"><stop offset="0" stop-color="#727C8B"/><stop offset="1" stop-color="#3E4550"/></linearGradient>
<linearGradient id="bfl" x1="0" y1="0" x2="0" y2="1"><stop offset="0" stop-color="#99A2AF"/><stop offset="1" stop-color="#626B78"/></linearGradient>
<linearGradient id="bin" x1="0" y1="0" x2="0" y2="1"><stop offset="0" stop-color="#0D0F12"/><stop offset="1" stop-color="#1D2127"/></linearGradient>
<linearGradient id="bdb" x1="0" y1="0" x2="0" y2="1"><stop offset="0" stop-color="#5A9BF0"/><stop offset="1" stop-color="#1F55B5"/></linearGradient>
<linearGradient id="bdr" x1="0" y1="0" x2="0" y2="1"><stop offset="0" stop-color="#F0646A"/><stop offset="1" stop-color="#B3262C"/></linearGradient>
</defs><ellipse cx="128" cy="240" rx="108" ry="11" fill="url(#sh)"/><path d="M46,126 L66,104 L190,104 L210,126Z" fill="url(#bin)"/><path d="M66,104 L46,70 L166,70 L190,104Z" fill="url(#bfl)" opacity=".9"/><g><circle cx="130.8" cy="108.9" r="77" fill="url(#dsh)"/><path d="M131.53,41.1 L133.81,34.24 L137.86,34.7 L138.55,41.89 L145.44,43.46 L149.18,37.28 L153.04,38.63 L152.11,45.8 L158.47,48.86 L163.5,43.67 L166.96,45.84 L164.46,52.62 L169.98,57.02 L176.03,53.08 L178.92,55.97 L174.98,62.02 L179.38,67.54 L186.16,65.04 L188.33,68.5 L183.14,73.53 L186.2,79.89 L193.37,78.96 L194.72,82.82 L188.54,86.56 L190.11,93.45 L197.3,94.14 L197.76,98.19 L190.9,100.47 L190.9,107.53 L197.76,109.81 L197.3,113.86 L190.11,114.55 L188.54,121.44 L194.72,125.18 L193.37,129.04 L186.2,128.11 L183.14,134.47 L188.33,139.5 L186.16,142.96 L179.38,140.46 L174.98,145.98 L178.92,152.03 L176.03,154.92 L169.98,150.98 L164.46,155.38 L166.96,162.16 L163.5,164.33 L158.47,159.14 L152.11,162.2 L153.04,169.37 L149.18,170.72 L145.44,164.54 L138.55,166.11 L137.86,173.3 L133.81,173.76 L131.53,166.9 L124.47,166.9 L122.19,173.76 L118.14,173.3 L117.45,166.11 L110.56,164.54 L106.82,170.72 L102.96,169.37 L103.89,162.2 L97.53,159.14 L92.5,164.33 L89.04,162.16 L91.54,155.38 L86.02,150.98 L79.97,154.92 L77.08,152.03 L81.02,145.98 L76.62,140.46 L69.84,142.96 L67.67,139.5 L72.86,134.47 L69.8,128.11 L62.63,129.04 L61.28,125.18 L67.46,121.44 L65.89,114.55 L58.7,113.86 L58.24,109.81 L65.1,107.53 L65.1,100.47 L58.24,98.19 L58.7,94.14 L65.89,93.45 L67.46,86.56 L61.28,82.82 L62.63,78.96 L69.8,79.89 L72.86,73.53 L67.67,68.5 L69.84,65.04 L76.62,67.54 L81.02,62.02 L77.08,55.97 L79.97,53.08 L86.02,57.02 L91.54,52.62 L89.04,45.84 L92.5,43.67 L97.53,48.86 L103.89,45.8 L102.96,38.63 L106.82,37.28 L110.56,43.46 L117.45,41.89 L118.14,34.7 L122.19,34.24 L124.47,41.1Z" fill="url(#gm)"/><circle cx="128" cy="104" r="63.5" fill="url(#gm)"/><circle cx="128" cy="104" r="63.35" fill="#1A1C20"/><circle cx="128" cy="104" r="61.95" fill="url(#cu)"/><circle cx="128" cy="104" r="58.8" fill="url(#vin)"/><circle cx="128" cy="104" r="29.48" fill="none" stroke="#fff" stroke-opacity="0.05" stroke-width="0.84"/><circle cx="128" cy="104" r="33.05" fill="none" stroke="#fff" stroke-opacity="0.05" stroke-width="0.84"/><circle cx="128" cy="104" r="36.63" fill="none" stroke="#fff" stroke-opacity="0.09" stroke-width="0.84"/><circle cx="128" cy="104" r="40.2" fill="none" stroke="#fff" stroke-opacity="0.05" stroke-width="0.84"/><circle cx="128" cy="104" r="43.78" fill="none" stroke="#fff" stroke-opacity="0.05" stroke-width="0.84"/><circle cx="128" cy="104" r="47.36" fill="none" stroke="#fff" stroke-opacity="0.09" stroke-width="0.84"/><circle cx="128" cy="104" r="50.93" fill="none" stroke="#fff" stroke-opacity="0.05" stroke-width="0.84"/><circle cx="128" cy="104" r="54.51" fill="none" stroke="#fff" stroke-opacity="0.05" stroke-width="0.84"/><clipPath id="bc"><circle cx="128" cy="104" r="58.8"/></clipPath><g clip-path="url(#bc)" fill="url(#sheen)"><path d="M128,104 L77.08,74.6 A58.8,58.8 0 0 1 112.78,47.2Z"/><path d="M128,104 L178.92,133.4 A58.8,58.8 0 0 1 143.22,160.8Z" opacity=".55"/></g><circle cx="128" cy="104" r="27.3" fill="#0A5360"/><circle cx="128" cy="104" r="25.9" fill="url(#lab)"/><path d="M120.77,91.47 L142.45,104 L120.77,116.53Z" transform="translate(0.84,1.4)" fill="#064652" opacity=".45" stroke="#064652" stroke-width="4.14" stroke-linejoin="round"/><path d="M120.77,91.47 L142.45,104 L120.77,116.53Z" fill="#fff" stroke="#fff" stroke-width="4.14" stroke-linejoin="round"/><path d="M79,60.6 A65.10000000000001,65.10000000000001 0 0 1 177,60.6" fill="none" stroke="#fff" stroke-opacity=".22" stroke-width="1.75" stroke-linecap="round"/></g><path d="M40,126 L216,126 L216,220 Q216,230 206,230 L50,230 Q40,230 40,220Z" fill="url(#bf)"/><path d="M40,126 L216,126 L216,132 L40,132Z" fill="#fff" opacity=".16"/><path d="M40,126 L16,160 L60,160 L84,126Z" fill="url(#bfl)"/><path d="M216,126 L240,160 L196,160 L172,126Z" fill="url(#bfl)"/><rect x="92" y="166" width="72" height="16" rx="4" fill="#00B4C8"/><rect x="92" y="166" width="72" height="6" rx="3" fill="#fff" opacity=".25"/><circle cx="198" cy="200" r="44" fill="#000" opacity=".25"/><circle cx="196" cy="196" r="42" fill="#fff"/><circle cx="196" cy="196" r="36" fill="url(#bdb)"/><path d="M168,184 A36,36 0 0 1 224,184" fill="none" stroke="#fff" stroke-opacity=".3" stroke-width="4" stroke-linecap="round"/><path d="M196,174 L196,212 M181,198 L196,213 L211,198" fill="none" stroke="#fff" stroke-width="9" stroke-linecap="round" stroke-linejoin="round"/></svg>
