<svg xmlns="http://www.w3.org/2000/svg" width="256" height="256" viewBox="0 0 256 256"><defs>
<linearGradient id="pg" x1="0" y1="0" x2="0" y2="1"><stop offset="0" stop-color="#FFFFFF"/><stop offset="1" stop-color="#E9ECF0"/></linearGradient>
<linearGradient id="fold" x1="0" y1="1" x2="1" y2="0"><stop offset="0" stop-color="#C9CFD8"/><stop offset=".6" stop-color="#F4F6F8"/><stop offset="1" stop-color="#FFFFFF"/></linearGradient>
<linearGradient id="tg" x1="0" y1="0" x2="0" y2="1"><stop offset="0" stop-color="#fff" stop-opacity=".28"/><stop offset=".5" stop-color="#fff" stop-opacity="0"/><stop offset="1" stop-color="#000" stop-opacity=".12"/></linearGradient>
<radialGradient id="sh" cx=".5" cy=".5" r=".5"><stop offset="0" stop-color="#000" stop-opacity=".45"/><stop offset="1" stop-color="#000" stop-opacity="0"/></radialGradient>
</defs><ellipse cx="129" cy="242" rx="92" ry="9" fill="url(#sh)"/><path d="M56,20 L164,20 L212,68 L212,228 Q212,238 202,238 L56,238 Q46,238 46,228 L46,30 Q46,20 56,20Z" fill="url(#pg)" stroke="#AEB5C0" stroke-width="2"/><path d="M164,20 L164,58 Q164,68 174,68 L212,68Z" fill="#000" opacity=".08" transform="translate(-3,4)"/><path d="M164,20 L164,58 Q164,68 174,68 L212,68Z" fill="url(#fold)" stroke="#AEB5C0" stroke-width="2" stroke-linejoin="round"/><path d="M74.5,96 L75.69,91.54 L76.88,87.19 L78.06,83.06 L79.25,79.25 L80.44,75.85 L81.62,72.94 L82.81,70.61 L84,68.89 L85.19,67.85 L86.38,67.5 L87.56,67.85 L88.75,68.89 L89.94,70.61 L91.12,72.94 L92.31,75.85 L93.5,79.25 L94.69,83.06 L95.88,87.19 L97.06,91.54 L98.25,96 L99.44,100.46 L100.62,104.81 L101.81,108.94 L103,112.75 L104.19,116.15 L105.38,119.06 L106.56,121.39 L107.75,123.11 L108.94,124.15 L110.12,124.5 L111.31,124.15 L112.5,123.11 L113.69,121.39 L114.88,119.06 L116.06,116.15 L117.25,112.75 L118.44,108.94 L119.62,104.81 L120.81,100.46 L122,96 L123.19,91.54 L124.38,87.19 L125.56,83.06 L126.75,79.25 L127.94,75.85 L129.12,72.94 L130.31,70.61 L131.5,68.89 L132.69,67.85 L133.88,67.5 L135.06,67.85 L136.25,68.89 L137.44,70.61 L138.62,72.94 L139.81,75.85 L141,79.25 L142.19,83.06 L143.38,87.19 L144.56,91.54 L145.75,96 L146.94,100.46 L148.12,104.81 L149.31,108.94 L150.5,112.75 L151.69,116.15 L152.88,119.06 L154.06,121.39 L155.25,123.11 L156.44,124.15 L157.62,124.5 L158.81,124.15 L160,123.11 L161.19,121.39 L162.38,119.06 L163.56,116.15 L164.75,112.75 L165.94,108.94 L167.12,104.81 L168.31,100.46 L169.5,96" fill="none" stroke="#4A5566" stroke-width="9.5" stroke-linecap="round" stroke-linejoin="round"/><rect x="30" y="158" width="160" height="62" rx="10" fill="#000" opacity=".18" transform="translate(2,4)"/><rect x="30" y="158" width="160" height="62" rx="10" fill="#4A5566"/><rect x="30" y="158" width="160" height="62" rx="10" fill="url(#tg)"/><path d="M91.6991643454039 206.0 81.27019498607243 170.0H74.15041782729806L63.621169916434546 206.0H70.13927576601671L72.1949860724234 198.57938718662953H83.07520891364902L84.98050139275766 206.0ZM81.37047353760445 192.41225626740948H73.84958217270196L77.66016713091922 177.97214484679665Z M102.27855153203343 206.0V170.0H96.11142061281338V206.0Z M130.0557103064067 176.3676880222841V170.0H109.04735376044569V206.0H115.21448467966574V190.85793871866295H128.20055710306409V184.49025069637884H115.21448467966574V176.3676880222841Z M156.1782729805014 176.3676880222841V170.0H135.1699164345404V206.0H141.33704735376045V190.85793871866295H154.32311977715878V184.49025069637884H141.33704735376045V176.3676880222841Z" fill="#fff"/></svg>
