<svg xmlns="http://www.w3.org/2000/svg" width="256" height="256" viewBox="0 0 256 256"><defs>
<linearGradient id="pg" x1="0" y1="0" x2="0" y2="1"><stop offset="0" stop-color="#FFFFFF"/><stop offset="1" stop-color="#E9ECF0"/></linearGradient>
<linearGradient id="fold" x1="0" y1="1" x2="1" y2="0"><stop offset="0" stop-color="#C9CFD8"/><stop offset=".6" stop-color="#F4F6F8"/><stop offset="1" stop-color="#FFFFFF"/></linearGradient>
<linearGradient id="tg" x1="0" y1="0" x2="0" y2="1"><stop offset="0" stop-color="#fff" stop-opacity=".28"/><stop offset=".5" stop-color="#fff" stop-opacity="0"/><stop offset="1" stop-color="#000" stop-opacity=".12"/></linearGradient>
<radialGradient id="sh" cx=".5" cy=".5" r=".5"><stop offset="0" stop-color="#000" stop-opacity=".45"/><stop offset="1" stop-color="#000" stop-opacity="0"/></radialGradient>
</defs><ellipse cx="129" cy="242" rx="92" ry="9" fill="url(#sh)"/><path d="M56,20 L164,20 L212,68 L212,228 Q212,238 202,238 L56,238 Q46,238 46,228 L46,30 Q46,20 56,20Z" fill="url(#pg)" stroke="#AEB5C0" stroke-width="2"/><path d="M164,20 L164,58 Q164,68 174,68 L212,68Z" fill="#000" opacity=".08" transform="translate(-3,4)"/><path d="M164,20 L164,58 Q164,68 174,68 L212,68Z" fill="url(#fold)" stroke="#AEB5C0" stroke-width="2" stroke-linejoin="round"/><rect x="79.9" y="60.3" width="8.1" height="23.4" rx="4.05" fill="#2F6BCB"/><rect x="92.5" y="50.4" width="8.1" height="43.2" rx="4.05" fill="#2F6BCB"/><rect x="105.1" y="40.5" width="8.1" height="63" rx="4.05" fill="#2F6BCB"/><rect x="117.7" y="47.7" width="8.1" height="48.6" rx="4.05" fill="#2F6BCB"/><rect x="130.3" y="36" width="8.1" height="72" rx="4.05" fill="#2F6BCB"/><rect x="142.9" y="52.2" width="8.1" height="39.6" rx="4.05" fill="#2F6BCB"/><rect x="155.5" y="58.5" width="8.1" height="27" rx="4.05" fill="#2F6BCB"/><rect x="18" y="124" width="200" height="100" rx="14" fill="#2F6BCB"/><rect x="18" y="124" width="200" height="100" rx="14" fill="url(#tg)"/><path d="M94.42752562225476 143.5236700829673H83.20253782332846L74.49194729136164 191.20741825280624L66.58955588091752 143.5236700829673H54.82576866764275L47.4621766715471 191.20741825280624C46.29477794045876 182.31722791605662 45.21717911176184 176.30063445583212 38.93118594436311 143.5236700829673H27.167398731088337L42.163982430453885 208.0H52.401171303074676L54.64616886285994 195.2484138604197L60.66276232308443 157.26305514885308L68.9243533430942 208.0H79.52074182528062Z M151.80966325036604 208.0V143.5236700829673H135.9150805270864L126.39629087359688 194.70961444607124L116.69790141532455 143.5236700829673H100.62371888726207V208.0H110.86090775988288V153.31185944363102L120.6490971205466 208.0H131.51488530990727L141.57247437774524 153.31185944363102V208.0Z M208.56320156173746 208.0 189.88482186432407 143.5236700829673H177.1332357247438L158.2752562225476 208.0H169.94924353343094L173.6310395314788 194.70961444607124H193.11761835041483L196.53001464128846 208.0ZM190.06442166910688 183.66422645192776H176.59443631039534L183.4192288921425 157.80185456320157Z" fill="#fff"/></svg>
